<svg xmlns="http://www.w3.org/2000/svg" viewBox="0 0 24 24" fill="#FFFFFF">
    <path d="M19.14,12.94c0.04-0.3,0.06-0.61,0.06-0.94c0-0.32-0.02-0.64-0.07-0.94l2.03-1.58c0.18-0.14,0.23-0.41,0.12-0.61
             c0,0-1.02-1.9-1.29-2.31c-0.16-0.24-0.42-0.32-0.65-0.24l-2.39,0.96c-0.5-0.38-1.03-0.7-1.62-0.94L15,3.94
             c-0.04-0.25-0.24-0.44-0.5-0.44h-2.7c-0.26,0-0.46,0.19-0.5,0.44l-0.36,2.54c-0.59,0.24-1.13,0.57-1.62,0.94L6.93,6.96
             c-0.25-0.09-0.53,0-0.65,0.24C6.01,7.61,5,9.49,5,9.49c-0.12,0.2-0.06,0.47,0.12,0.61l2.03,1.58
             C7.1,11.98,7.09,12.32,7.09,12.62c0,0.32,0.02,0.64,0.07,0.94l-2.03,1.58c-0.18,0.14-0.23,0.41-0.12,0.61
             c0,0,1.02,1.9,1.29,2.31c0.16,0.24,0.42,0.32,0.65,0.24l2.39-0.96c0.5,0.38,1.03,0.7,1.62,0.94l0.36,2.54
             c0.05,0.25,0.24,0.44,0.5,0.44h2.7c0.26,0,0.46-0.19,0.5-0.44l0.36-2.54c0.59-0.24,1.13-0.56,1.62-0.94l2.39,0.96
             c0.25,0.09,0.53,0,0.65-0.24c0.27-0.41,1.29-2.31,1.29-2.31c0.11-0.2,0.06-0.47-0.12-0.61L19.14,12.94z M12,15.6
             c-1.98,0-3.6-1.62-3.6-3.6s1.62-3.6,3.6-3.6s3.6,1.62,3.6,3.6S13.98,15.6,12,15.6z"/>
</svg>
